<svg width="69" height="37" viewBox="0 0 69 37" fill="none" xmlns="http://www.w3.org/2000/svg">
<g clip-path="url(#clip0)">
<path d="M22.5198 24.1724H19.4531V36.1627H22.5198V24.1724Z" fill="#000622"/>
<path d="M46.9578 27.626C46.862 27.5301 45.9036 26.9545 44.3703 26.9545C42.4536 26.9545 41.0161 28.2974 41.0161 30.12C41.0161 31.9425 42.3578 33.2854 44.3703 33.2854C45.8078 33.2854 46.7661 32.7099 46.9578 32.614V35.8754C46.5745 35.9713 45.5203 36.2591 44.1786 36.2591C40.8245 36.2591 37.7578 33.9569 37.7578 30.0241C37.7578 26.4749 40.4411 23.7891 44.1786 23.7891C45.6161 23.7891 46.6703 24.1728 46.9578 24.1728V27.626Z" fill="#000622"/>
<path d="M15.3328 27.626C15.237 27.5301 14.2786 26.9545 12.7453 26.9545C10.8286 26.9545 9.39115 28.2974 9.39115 30.12C9.39115 31.9425 10.7328 33.2854 12.7453 33.2854C14.1828 33.2854 15.1411 32.7099 15.3328 32.614V35.8754C14.9495 35.9713 13.8953 36.2591 12.5536 36.2591C9.19948 36.2591 6.13281 33.9569 6.13281 30.0241C6.13281 26.4749 8.81615 23.7891 12.5536 23.7891C13.9911 23.7891 15.0453 24.1728 15.3328 24.1728V27.626Z" fill="#000622"/>
<path d="M56.4461 27.0505C54.6253 27.0505 53.2836 28.4893 53.2836 30.216C53.2836 31.9426 54.6253 33.3814 56.4461 33.3814C58.2669 33.3814 59.6086 31.9426 59.6086 30.216C59.6086 28.4893 58.2669 27.0505 56.4461 27.0505ZM62.7711 30.216C62.7711 33.6692 60.0878 36.4509 56.4461 36.4509C52.8044 36.4509 50.1211 33.6692 50.1211 30.216C50.1211 26.7627 52.8044 23.981 56.4461 23.981C60.0878 23.981 62.7711 26.7627 62.7711 30.216Z" fill="#000622"/>
<path d="M34.0219 26.9544C34.0219 26.9544 32.6802 26.5707 31.626 26.5707C30.3802 26.5707 29.7094 26.9544 29.7094 27.5299C29.7094 28.2973 30.5719 28.4891 31.051 28.681L31.9135 28.9687C33.8302 29.6402 34.7885 30.9831 34.7885 32.422C34.7885 35.3956 32.1052 36.4507 29.8052 36.4507C28.176 36.4507 26.6427 36.163 26.5469 36.163V33.3812C26.8344 33.4771 28.0802 33.8608 29.4219 33.8608C30.9552 33.8608 31.626 33.3812 31.626 32.7097C31.626 32.1342 31.051 31.7505 30.2844 31.5587C30.0927 31.4627 29.8052 31.3668 29.6135 31.3668C27.8885 30.7913 26.5469 29.832 26.5469 27.8177C26.5469 25.6114 28.2719 24.0767 31.051 24.0767C32.4885 24.0767 33.926 24.4604 34.0219 24.4604V26.9544Z" fill="#000622"/>
<path d="M2.97083 11.3189C2.97083 10.4556 2.3 9.78418 1.4375 9.78418C0.575 9.78418 0 10.4556 0 11.3189V14.4844C0 15.3477 0.670833 16.0192 1.53333 16.0192C2.39583 16.0192 3.06667 15.3477 3.06667 14.4844V11.3189H2.97083Z" fill="#000622"/>
<path d="M11.2132 7.19419C11.2132 6.33089 10.5423 5.65942 9.67982 5.65942C8.81732 5.65942 8.14648 6.33089 8.14648 7.19419V14.4843C8.14648 15.3477 8.81732 16.0191 9.67982 16.0191C10.5423 16.0191 11.2132 15.3477 11.2132 14.4843V7.19419Z" fill="#000622"/>
<path d="M19.5491 1.53477C19.5491 0.671461 18.8783 0 18.0158 0C17.1533 0 16.4824 0.671461 16.4824 1.53477V17.458C16.4824 18.3213 17.1533 18.9928 18.0158 18.9928C18.8783 18.9928 19.5491 18.3213 19.5491 17.458V1.53477Z" fill="#000622"/>
<path d="M27.7913 7.19419C27.7913 6.33089 27.1204 5.65942 26.2579 5.65942C25.3954 5.65942 24.7246 6.33089 24.7246 7.19419V14.4843C24.7246 15.3477 25.3954 16.0191 26.2579 16.0191C27.1204 16.0191 27.7913 15.3477 27.7913 14.4843V7.19419Z" fill="#000622"/>
<path d="M36.0335 11.3189C36.0335 10.4556 35.3626 9.78418 34.5001 9.78418C33.6376 9.78418 32.9668 10.4556 32.9668 11.3189V14.4844C32.9668 15.3477 33.6376 16.0192 34.5001 16.0192C35.3626 16.0192 36.0335 15.3477 36.0335 14.4844V11.3189Z" fill="#000622"/>
<path d="M36.0335 11.3189C36.0335 10.4556 35.3626 9.78418 34.5001 9.78418C33.6376 9.78418 32.9668 10.4556 32.9668 11.3189V14.4844C32.9668 15.3477 33.6376 16.0192 34.5001 16.0192C35.3626 16.0192 36.0335 15.3477 36.0335 14.4844V11.3189Z" fill="#000622"/>
<path d="M44.2757 7.19419C44.2757 6.33089 43.6048 5.65942 42.7423 5.65942C41.8798 5.65942 41.209 6.33089 41.209 7.19419V14.4843C41.209 15.3477 41.8798 16.0191 42.7423 16.0191C43.6048 16.0191 44.2757 15.3477 44.2757 14.4843V7.19419Z" fill="#000622"/>
<path d="M52.5159 1.53477C52.5159 0.671461 51.8451 0 50.9826 0C50.1201 0 49.4492 0.671461 49.4492 1.53477V17.458C49.4492 18.3213 50.1201 18.9928 50.9826 18.9928C51.8451 18.9928 52.5159 18.3213 52.5159 17.458V1.53477Z" fill="#000622"/>
<path d="M60.7581 7.19419C60.7581 6.33089 60.0872 5.65942 59.2247 5.65942C58.3622 5.65942 57.6914 6.33089 57.6914 7.19419V14.4843C57.6914 15.3477 58.3622 16.0191 59.2247 16.0191C60.0872 16.0191 60.7581 15.3477 60.7581 14.4843V7.19419Z" fill="#000622"/>
<path d="M69.0003 11.3189C69.0003 10.4556 68.3294 9.78418 67.4669 9.78418C66.6044 9.78418 65.9336 10.4556 65.9336 11.3189V14.4844C65.9336 15.3477 66.6044 16.0192 67.4669 16.0192C68.3294 16.0192 69.0003 15.3477 69.0003 14.4844V11.3189Z" fill="#000622"/>
<path d="M67.2753 34.6282V34.82H66.7003V36.2589H66.5086V34.82H65.9336V34.6282H67.2753Z" fill="#000622"/>
<path d="M67.3711 34.6282H67.7544L68.2336 35.9711L68.7128 34.6282H69.0003V36.1629H68.8086V34.9159L68.3294 36.1629H68.0419L67.5628 34.9159V36.1629H67.3711V34.6282Z" fill="#000622"/>
</g>
<defs>
<clipPath id="clip0">
<rect width="69" height="36.3548" fill="white"/>
</clipPath>
</defs>
</svg>
