<svg width="118" height="36" viewBox="0 0 118 36" fill="none" xmlns="http://www.w3.org/2000/svg">
<path d="M18.3052 2.9038C17.7346 3.65175 17.3834 4.57569 17.3834 5.54362C17.3834 5.8516 17.3834 13.5511 17.3834 13.8151C17.3395 14.431 17.12 15.047 16.7249 15.5309C16.5054 15.7509 15.2323 16.8949 15.1445 17.0268H15.8469C16.0664 16.8069 18.5247 14.607 18.7881 14.343C19.4905 13.5511 19.9295 12.5392 19.9295 11.4832C19.9295 11.1312 19.9295 3.87174 19.9295 3.51976C19.9295 2.72782 20.1929 1.93587 20.7636 1.31991C21.0709 1.01193 21.9927 0.175988 22.1683 0H21.4221C21.2465 0.219985 18.5686 2.63982 18.3052 2.9038Z" fill="#000622"/>
<path d="M12.248 33.0414L15.2332 35.6373H17.2525C19.1841 35.6373 21.0278 34.8893 22.3887 33.5254C23.6178 32.2935 24.0568 30.6216 24.0568 29.0817V24.77C24.0568 23.8021 23.6178 22.8781 22.8716 22.2182C22.7399 22.0862 21.8619 21.2502 21.8619 21.2502V24.55C21.8619 24.55 22.8277 25.562 23.0033 25.7379C23.8812 26.7059 23.8812 28.4218 21.0717 31.1496C20.5888 31.6335 19.1841 32.9535 17.2525 32.9535L12.248 33.0414Z" fill="#000622"/>
<path d="M20.5879 15.3553C20.2806 15.7073 19.9294 16.5873 19.9294 17.3352V18.9631H21.5537C22.2121 18.9631 23.0462 18.3911 23.2218 18.0832V16.4553C23.4413 16.8073 23.7486 17.1152 24.0998 17.3792C24.2754 17.1592 25.768 15.3553 27.041 15.3114C29.1482 15.3114 28.6653 17.9512 27.8312 18.7871C27.5678 19.0511 26.3386 20.195 25.9435 20.547C24.9339 21.5589 23.2657 21.075 23.2657 18.6551C23.2657 18.6551 21.4659 20.371 21.1586 20.635C20.8952 20.855 19.9294 21.8669 19.9294 21.8669V26.1786C19.9294 28.2465 19.2709 28.9064 18.7002 29.5664C18.4807 29.7864 16.198 31.9422 15.8468 32.1622H15.1005C15.1005 32.1622 16.4614 30.9303 16.7248 30.6663C17.0321 30.3583 17.3833 29.6984 17.3833 28.5985C17.3833 28.3345 17.3394 21.8669 17.3394 21.8669H6.80366C3.11616 21.8669 2.36988 17.8192 2.32599 16.7193C2.32599 16.4113 2.32599 13.1555 2.32599 12.6275C2.32599 11.9676 1.887 10.8237 1.22852 10.4717H2.28209C2.45768 10.4717 3.07227 10.7357 3.07227 13.2435C3.07227 13.2435 3.02837 16.1473 3.02837 16.3233C3.02837 17.5992 4.03804 19.0511 5.4867 19.0511H17.3833C17.3833 18.7431 17.6906 17.5112 18.3052 16.8512C18.6124 16.4993 21.2025 14.1674 21.4659 13.9034H22.2121C22.1243 13.9914 20.8513 15.0914 20.5879 15.3553ZM24.4949 17.8192C24.8022 18.2152 25.1534 18.6551 25.5046 19.0071C26.7776 20.063 27.3922 18.9191 26.5581 17.7752C26.2069 17.2472 24.89 17.3792 24.4949 17.8192Z" fill="#000622"/>
<path d="M11.7214 25.5183C11.7214 26.0903 9.8777 27.6302 9.7899 27.7182C9.6582 27.1022 9.17532 26.4423 7.81445 25.0344L9.8338 23.0105C11.1947 24.3744 11.7214 24.6824 11.7214 25.5183Z" fill="#000622"/>
<path d="M15.2337 2.41984C15.6288 2.81581 16.5068 3.91573 15.98 4.4437C15.541 4.88367 14.7947 5.63162 14.7947 5.63162C14.7508 5.36764 14.0924 4.70768 14.0924 4.70768C14.0924 4.70768 14.0924 6.64355 14.0924 6.90753C14.0924 7.78747 13.7412 8.05145 13.7412 8.05145C13.7412 8.05145 15.3654 9.63535 15.3654 11.7472C15.3654 12.7591 15.3654 13.6831 15.3654 13.8591C15.3654 14.255 15.2337 14.651 14.9703 14.959C14.8386 15.135 13.3461 16.6309 13.0827 16.8509C12.7315 17.1588 12.2925 17.3348 11.8535 17.2908H6.27837C5.40039 17.2908 4.47852 16.5869 4.47852 15.9269C4.47852 15.7509 4.47852 13.8591 4.47852 13.8591C4.74191 14.167 5.0492 14.563 5.75158 14.563C6.32227 14.563 6.89295 14.123 7.02465 13.9471C7.15634 13.7711 11.2389 9.54735 11.2389 9.54735C11.2389 9.54735 9.35128 7.78747 8.07822 6.95153C7.46363 6.55556 6.67346 7.03952 6.54176 7.61148C6.14667 9.28337 6.54176 11.8352 6.54176 11.8352L5.0053 10.2953C4.39072 9.67934 4.39072 8.27144 5.137 7.52349C5.2248 7.3915 6.36616 6.15958 7.81483 6.15958H10.0976C11.5901 6.15958 13.2144 7.65548 13.2144 7.65548C13.3461 7.52349 13.4339 7.3475 13.4339 7.12752C13.4339 6.33557 13.4339 4.31171 13.4339 4.31171C12.2925 3.07979 12.1608 1.89187 12.6876 1.36391C13.6973 0.351976 14.0924 0 14.0924 0C14.0924 0 14.0485 1.23192 15.2337 2.41984ZM8.20992 13.6391C7.63923 14.211 7.55143 14.343 7.02465 14.695H13.3022C15.0142 14.695 14.663 13.6391 14.3557 13.1111C13.7412 12.0112 11.7657 9.98732 11.7657 9.98732C11.7657 9.98732 8.34161 13.5071 8.20992 13.6391Z" fill="#000622"/>
<path d="M1.05357 19.4026H0C0 19.4026 1.09747 20.0185 1.09747 21.6024V26.6181C1.09747 29.8739 3.7753 32.9097 7.06771 32.9097H9.78943C11.4137 32.9097 12.0283 32.5137 12.994 31.6338C13.3452 31.3258 13.8281 30.7538 14.0037 30.5778C14.5744 29.9179 15.189 29.3899 15.189 27.718V26.0901C15.189 24.6822 14.3549 24.0663 13.9598 23.6703C13.6964 23.4063 12.994 22.7464 12.994 22.7464V26.1341C12.994 26.1341 13.6964 26.8821 14.0037 27.1021C15.4085 28.246 14.311 30.1819 12.9501 30.1819C12.6868 30.1819 7.3311 30.1819 6.93601 30.1819C4.74107 30.2259 1.75595 28.246 1.75595 24.9462V22.2184C1.79985 19.4026 1.05357 19.4026 1.05357 19.4026Z" fill="#000622"/>
<path d="M7.63746 25.5183C7.63746 26.0903 5.79371 27.6302 5.70592 27.7182C5.57422 27.1022 5.09133 26.4423 3.73047 25.0344L5.74981 23.0105C7.06678 24.3744 7.63746 24.6824 7.63746 25.5183Z" fill="#000622"/>
<path d="M40.1237 27.4536H36.1289C34.8997 27.4536 34.9875 26.3977 34.8558 25.5178V19.7981C34.8558 19.7981 35.7338 19.7542 36.6996 19.7542C37.7971 19.7542 39.1579 19.5782 40.5188 20.3261C39.8164 18.8742 38.3238 17.9503 36.6996 17.9943H34.8558V16.1464C34.8558 16.1464 34.8558 14.5625 34.4608 14.0785H37.0947C39.3774 14.0785 41.1334 14.0345 42.9332 15.2665C42.9332 15.2665 42.582 12.2747 38.1922 12.2747H29.6758C29.6758 12.2747 31.1683 13.5506 31.1244 16.1464L31.1683 26.5737C31.1683 29.1695 32.2219 29.2575 32.2219 29.2575H40.6505C42.582 29.2575 43.2405 27.8936 43.2405 27.1457L43.2844 26.1777C43.2405 26.1777 42.6259 27.4536 40.1237 27.4536Z" fill="#000622"/>
<path d="M62.5991 26.5736V19.2701C62.5991 16.4542 60.3164 15.7063 58.5605 15.7063C56.2777 15.7063 55.6192 17.5982 55.3119 18.2581C54.7852 16.4982 53.0292 15.7063 51.5805 15.7063C48.8588 15.7063 48.1564 18.3021 48.1564 18.3021C48.1564 18.3021 48.1125 15.7503 45.8737 15.7503H43.7227C43.7227 15.7503 44.9518 16.2783 44.9518 18.4341V26.5296C44.9518 29.2134 46.0054 29.2574 46.0054 29.2574H49.5612C48.7271 28.5974 48.2003 27.5855 48.2003 26.5296V19.3581C48.2442 19.0501 48.771 17.9501 50.3075 17.9501C51.1855 17.9501 52.1512 18.8741 52.1073 19.886V26.5296C52.1073 29.2134 53.1609 29.2574 53.1609 29.2574H56.7167C55.8826 28.5974 55.3558 27.5855 55.3558 26.5296V19.3581C55.707 18.3021 56.8045 17.7302 57.902 18.0821C58.6921 18.3461 59.2628 19.0501 59.3067 19.93C59.3067 19.93 59.3067 26.0016 59.3067 26.5736C59.3506 29.3014 60.3603 29.2574 60.3603 29.2574C62.2041 29.2574 63.9161 29.2574 63.9161 29.2574C63.1259 28.5974 62.5991 27.6295 62.5991 26.5736Z" fill="#000622"/>
<path d="M68.7892 26.5735C68.7892 27.6294 69.3159 28.6414 70.15 29.3013C70.15 29.3013 68.438 29.3013 66.5942 29.3013C66.5942 29.3013 65.4967 29.3453 65.4967 26.6175V18.4341C65.4967 16.3222 64.2676 15.7502 64.2676 15.7502H66.4186C67.2088 15.7502 68.7453 15.7502 68.7453 18.742V26.4855L68.7892 26.5735Z" fill="#000622"/>
<path d="M79.7639 16.8064C79.7639 16.8064 79.4127 15.8384 77.964 15.8384C75.7252 15.8384 75.1984 18.5222 75.1984 18.5222C75.0228 16.4104 74.4521 15.7944 72.8717 15.7944H70.7207C70.7207 15.7944 71.9499 16.3224 71.9499 18.4783V26.5737C71.9499 29.2575 73.0034 29.3015 73.0034 29.3015H76.5592C75.7252 28.6416 75.1984 27.6296 75.1984 26.5737V19.9302C75.2862 19.3582 75.5935 18.8742 76.0764 18.5662C77.2616 17.7743 78.842 17.9943 79.7639 19.0942V16.8064Z" fill="#000622"/>
<path d="M96.3574 17.2905C97.1037 17.2905 97.8061 17.4665 98.4646 17.8185V15.7946H95.4794V12.7148C94.821 13.7268 94.0308 14.6507 93.065 15.3987C92.0553 16.2346 89.9043 17.2465 89.9043 17.2465L92.187 17.2905V26.6619C92.187 29.2577 93.2845 29.2577 93.2845 29.2577C95.216 29.2577 96.8403 29.2577 96.8403 29.2577C96.0062 28.6418 95.4794 27.6738 95.4355 26.6179V17.2905C96.4013 17.2905 95.7428 17.2905 96.3574 17.2905Z" fill="#000622"/>
<path d="M107.158 21.3383C105.182 23.4062 103.602 23.0982 102.329 24.6381C102.329 24.6381 102.549 26.706 104.129 27.4539C104.656 27.6739 106.851 28.5098 108.299 26.046V28.2459C108.299 28.2459 107.377 29.3018 104.48 29.3018C101.012 29.3018 98.5977 26.574 98.5977 22.8342C98.5977 19.1385 100.529 15.7507 104.217 15.7507C107.816 15.6627 109.792 18.6105 107.158 21.3383ZM104.963 20.5024C105.534 19.4025 106.017 16.6306 103.997 16.8066C101.671 16.9826 102.11 23.1862 102.11 23.1862C102.9 22.3503 104.041 22.1743 104.963 20.5024Z" fill="#000622"/>
<path d="M67.1662 14.6945C68.0881 14.6505 68.7466 13.9026 68.7466 13.0226C68.7027 12.0987 67.9564 11.4387 67.0784 11.4387C66.2004 11.4827 65.498 12.1867 65.498 13.0666C65.498 13.9905 66.2443 14.6945 67.1662 14.6945Z" fill="#000622"/>
<path d="M83.4528 27.7175C82.6626 27.7175 82.0481 26.8815 82.0481 26.0016C82.0481 22.6578 84.7698 22.1738 85.5161 21.2939V26.9695C85.2088 27.2335 84.9015 27.7175 83.4528 27.7175ZM85.56 20.018C84.7259 21.4699 78.3167 21.7779 79.2824 26.7495C79.6775 28.7294 80.9945 29.3013 82.6187 29.3013C84.1991 29.3013 85.2088 28.4654 85.6039 27.6735C85.8233 29.1694 86.6135 29.2573 86.6135 29.2573C88.4573 29.2573 90.1693 29.2573 90.1693 29.2573C89.3352 28.5974 88.7646 27.6295 88.7646 26.5735V18.962C88.7646 17.1582 86.7891 15.7503 84.6381 15.7503C83.4528 15.7063 82.3114 16.0582 81.3018 16.7182V19.05C81.3018 19.05 82.0481 17.2022 83.8918 17.2022C85.6917 17.2022 85.8233 18.1261 85.8233 18.5661C85.9111 19.05 85.8233 19.578 85.56 20.018Z" fill="#000622"/>
<path d="M115.015 25.6054C115.059 26.5734 114.181 27.8053 112.381 27.8053C110.537 27.8053 109.791 25.9134 109.791 25.9134V28.3333C110.8 28.9932 111.986 29.3012 113.171 29.3012C115.585 29.3012 118.044 27.4533 118 24.8575C117.956 24.0215 117.692 23.1856 117.166 22.5256C116.332 21.4257 114.839 20.6778 113.698 19.9298C113.039 19.5338 112.688 18.7859 112.688 18.5219C112.644 18.0819 112.908 17.158 114.663 17.158C116.419 17.158 117.21 19.0059 117.21 19.0059V16.718C116.244 16.0141 115.015 15.6621 113.786 15.6621C111.678 15.6621 109.703 17.07 109.747 18.8739C109.791 20.4578 110.449 21.4697 111.722 22.4816C112.293 22.9216 112.908 23.2736 113.566 23.6256C114.62 24.2415 114.971 24.9455 115.015 25.6054Z" fill="#000622"/>
</svg>
