<svg width="85" height="25" viewBox="0 0 85 25" fill="none" xmlns="http://www.w3.org/2000/svg">
<path fill-rule="evenodd" clip-rule="evenodd" d="M83.7332 24.1618C83.1083 24.1618 82.6917 23.6411 82.6917 23.1204C82.6917 22.4955 83.2124 22.0789 83.7332 22.0789C84.2539 22.0789 84.6705 22.4955 84.7746 23.1204C84.7746 23.6411 84.2539 24.1618 83.7332 24.1618ZM83.7332 21.8706C83.0041 21.8706 82.4834 22.3913 82.4834 23.1204C82.4834 23.8494 83.0041 24.3701 83.7332 24.3701C84.4622 24.3701 84.9829 23.8494 84.9829 23.1204C84.8788 22.3913 84.358 21.8706 83.7332 21.8706ZM83.4207 23.0162V22.5996H83.629C83.7332 22.5996 83.9415 22.5996 83.9415 22.8079C83.9415 23.0162 83.7332 23.0162 83.629 23.0162H83.4207ZM84.2539 22.8079C84.2539 22.4955 84.0456 22.3913 83.7332 22.3913H83.2124V23.7452H83.4207V23.1204H83.629L83.9415 23.7452H84.2539L83.8373 23.1204C84.0456 23.1204 84.2539 23.0162 84.2539 22.8079ZM76.3388 5.10315C77.6927 5.10315 78.9425 4.06168 78.9425 2.60364C78.9425 1.24975 77.901 0 76.443 0H76.3388C74.9849 0 73.8393 1.1456 73.8393 2.60364C73.9435 3.95754 74.9849 5.10315 76.3388 5.10315ZM69.5693 7.2902V11.0395H74.2559V24.1618H78.4217V11.0395H83.1083V7.2902H69.5693ZM32.91 5.10315C34.2639 5.10315 35.4095 3.95754 35.4095 2.60364C35.4095 1.24975 34.2639 0.104152 32.91 0.104152C31.5562 0.104152 30.4105 1.24976 30.4105 2.70779C30.4105 3.95754 31.5562 5.10315 32.91 5.10315ZM26.1406 11.0395H30.8271V24.1618H34.993V11.0395H39.6795V7.2902H26.1406V11.0395ZM62.3833 24.1618H66.5491V7.39435H62.3833V24.1618ZM53.9475 16.5592C53.9475 18.8504 52.6977 21.1416 49.9899 21.1416C47.2822 21.1416 46.8656 18.6421 46.8656 16.6633V7.39435H42.6997V17.9131C42.6997 21.3499 44.4702 24.6825 48.9485 24.6825C51.448 24.6825 53.4268 23.2245 54.1558 21.454H54.2599V24.1618H58.2175V7.39435H54.0516L53.9475 16.5592ZM17.8089 6.87362C15.3094 6.87362 13.3307 8.33167 12.6016 10.1021H12.4975V7.39435H8.53995V24.1618H12.7058V14.8928C12.7058 12.6016 13.9555 10.3104 16.6633 10.3104C19.3711 10.3104 19.7877 12.8099 19.7877 14.7887V24.0577H23.9535V13.5389C23.9535 10.2063 22.183 6.87362 17.8089 6.87362ZM0 24.1618H4.16583V7.39435H0V24.1618Z" fill="#000622"/>
</svg>
